HIERARCHY
ROOT Hips
{
	OFFSET 0.00000 0.00000 0.00000
	CHANNELS 6 Xposition Yposition Zposition Zrotation Yrotation Xrotation 
	JOINT LHipJoint
	{
		OFFSET 0 0 0
		CHANNELS 3 Zrotation Yrotation Xrotation
		JOINT LeftUpLeg
		{
			OFFSET 1.36306 -1.79463 0.83929
			CHANNELS 3 Zrotation Yrotation Xrotation
			JOINT LeftLeg
			{
				OFFSET 2.44811 -6.72613 0.00000
				CHANNELS 3 Zrotation Yrotation Xrotation
				JOINT LeftFoot
				{
					OFFSET 2.56220 -7.03959 0.00000
					CHANNELS 3 Zrotation Yrotation Xrotation
					JOINT LeftToeBase
					{
						OFFSET 0.15764 -0.43311 2.32255
						CHANNELS 3 Zrotation Yrotation Xrotation
						End Site
						{
							OFFSET 0.00000 -0.00000 1.18966
						}
					}
				}
			}
		}
	}
	JOINT RHipJoint
	{
		OFFSET 0 0 0
		CHANNELS 3 Zrotation Yrotation Xrotation
		JOINT RightUpLeg
		{
			OFFSET -1.30552 -1.79463 0.83929
			CHANNELS 3 Zrotation Yrotation Xrotation
			JOINT RightLeg
			{
				OFFSET -2.54253 -6.98555 0.00000
				CHANNELS 3 Zrotation Yrotation Xrotation
				JOINT RightFoot
				{
					OFFSET -2.56826 -7.05623 0.00000
					CHANNELS 3 Zrotation Yrotation Xrotation
					JOINT RightToeBase
					{
						OFFSET -0.16473 -0.45259 2.36315
						CHANNELS 3 Zrotation Yrotation Xrotation
						End Site
						{
							OFFSET -0.00000 -0.00000 1.21082
						}
					}
				}
			}
		}
	}
	JOINT LowerBack
	{
		OFFSET 0 0 0
		CHANNELS 3 Zrotation Yrotation Xrotation
		JOINT Spine
		{
			OFFSET 0.02827 2.03559 -0.19338
			CHANNELS 3 Zrotation Yrotation Xrotation
			JOINT Spine1
			{
				OFFSET 0.05672 2.04885 -0.04275
				CHANNELS 3 Zrotation Yrotation Xrotation
				JOINT Neck
				{
					OFFSET 0 0 0
					CHANNELS 3 Zrotation Yrotation Xrotation
					JOINT Neck1
					{
						OFFSET -0.05417 1.74624 0.17202
						CHANNELS 3 Zrotation Yrotation Xrotation
						JOINT Head
						{
							OFFSET 0.10407 1.76136 -0.12397
							CHANNELS 3 Zrotation Yrotation Xrotation
							End Site
							{
								OFFSET 0.03720 1.77044 -0.06241
							}
						}
					}
				}
				JOINT LeftShoulder
				{
					OFFSET 0 0 0
					CHANNELS 3 Zrotation Yrotation Xrotation
					JOINT LeftArm
					{
						OFFSET 3.36241 1.20089 -0.31121
						CHANNELS 3 Zrotation Yrotation Xrotation
						JOINT LeftForeArm
						{
							OFFSET 4.98300 -0.00000 -0.00000
							CHANNELS 3 Zrotation Yrotation Xrotation
							JOINT LeftHand
							{
								OFFSET 3.48356 -0.00000 -0.00000
								CHANNELS 3 Zrotation Yrotation Xrotation
								JOINT LeftFingerBase
								{
									OFFSET 0 0 0
									CHANNELS 3 Zrotation Yrotation Xrotation
									JOINT LeftHandIndex1
									{
										OFFSET 0.71526 -0.00000 -0.00000
										CHANNELS 3 Zrotation Yrotation Xrotation
										End Site
										{
											OFFSET 0.57666 -0.00000 -0.00000
										}
									}
								}
								JOINT LThumb
								{
									OFFSET 0 0 0
									CHANNELS 3 Zrotation Yrotation Xrotation
									End Site
									{
										OFFSET 0.58547 -0.00000 0.58547
									}
								}
							}
						}
					}
				}
				JOINT RightShoulder
				{
					OFFSET 0 0 0
					CHANNELS 3 Zrotation Yrotation Xrotation
					JOINT RightArm
					{
						OFFSET -3.13660 1.37405 -0.40465
						CHANNELS 3 Zrotation Yrotation Xrotation
						JOINT RightForeArm
						{
							OFFSET -5.24190 -0.00000 -0.00000
							CHANNELS 3 Zrotation Yrotation Xrotation
							JOINT RightHand
							{
								OFFSET -3.44417 -0.00000 -0.00000
								CHANNELS 3 Zrotation Yrotation Xrotation
								JOINT RightFingerBase
								{
									OFFSET 0 0 0
									CHANNELS 3 Zrotation Yrotation Xrotation
									JOINT RightHandIndex1
									{
										OFFSET -0.62253 -0.00000 -0.00000
										CHANNELS 3 Zrotation Yrotation Xrotation
										End Site
										{
											OFFSET -0.50190 -0.00000 -0.00000
										}
									}
								}
								JOINT RThumb
								{
									OFFSET 0 0 0
									CHANNELS 3 Zrotation Yrotation Xrotation
									End Site
									{
										OFFSET -0.50956 -0.00000 0.50956
									}
								}
							}
						}
					}
				}
			}
		}
	}
}
MOTION
Frames: 5
Frame Time: 0.00636943
0.00 0.00 0.00 -174.4350 9.7848 -233.8150 0.0000 0.0000 0.0000 17.4375 47.5846 -88.6568 37.4064 10.0061 151.0035 178.9207 27.0623 -31.6829 0.0921 -1.9574 -5.3881 0.0000 0.0000 0.0000 16.8268 5.3376 -89.5569 -36.1175 -12.0024 144.2595 5.5815 -39.4192 -3.3559 -6.7047 -15.0781 47.7483 -5.6999 -8.3505 48.0774 0.7725 -6.1274 15.2656 5.8898 -0.2306 -3.6822 -27.8126 5.5644 0.0796 9.7383 8.4199 14.7258 7.6156 3.6751 2.9952 -0.0000 0.0000 0.0000 0.3345 -56.4028 -45.4282 79.7628 -59.6003 -51.1462 -0.0000 -0.0000 18.3939 -7.4835 9.1746 -1.1999 -7.1250 0.0000 -0.0000 -28.7506 37.5339 5.8878 -0.0000 0.0000 0.0000 178.7388 77.0872 142.8115 -81.8636 59.7484 -52.9596 0.0000 0.0000 11.6500 -13.9719 -24.8721 5.9740 7.1250 -0.0000 -0.0000 16.5270 -54.7450 -4.0385
0.00 0.00 0.00 -174.3820 9.9788 -235.5010 0.0000 0.0000 0.0000 22.6251 52.8141 -85.8869 37.6418 9.5755 152.3873 178.0176 30.9627 -33.1158 0.0062 -0.5095 -1.4001 0.0000 0.0000 0.0000 15.8752 5.0033 -84.9937 -34.6488 -13.7687 137.6812 3.3309 -31.0077 -5.0462 -6.4480 -14.8489 46.7544 -7.0251 -7.3617 49.9331 1.4201 -5.4135 14.4369 6.6258 0.1046 -3.6213 -27.4559 5.4050 0.3447 9.3102 8.2576 15.1938 7.4436 3.5846 3.1714 -0.0000 0.0000 0.0000 1.7172 -56.4618 -45.3435 80.2419 -59.6371 -51.5595 -0.0000 -0.0000 18.2205 -7.4783 9.9639 -1.3011 -7.1250 0.0000 -0.0000 -29.0323 38.2329 5.3947 -0.0000 0.0000 0.0000 179.1202 78.6006 142.9463 -83.4219 59.8359 -54.3064 0.0000 0.0000 11.2430 -13.9907 -24.4828 5.8952 7.1250 -0.0000 -0.0000 16.3044 -54.3723 -3.8321
0.00 0.00 0.00 -175.1500 8.3189 -233.5300 0.0000 0.0000 0.0000 19.3467 55.9900 -92.8047 38.0955 8.6643 155.2493 177.4773 32.0069 -31.7304 0.1163 -2.1989 -6.0558 0.0000 0.0000 0.0000 15.8367 3.6393 -77.3614 -30.9816 -16.8195 123.8464 0.1322 -6.4438 -2.7597 -0.6538 -5.1719 14.3994 -8.1171 -6.6256 44.7528 1.3054 -5.4987 15.0997 7.3938 -0.3770 -2.8241 -28.6465 5.3421 1.9212 9.4729 7.8464 15.1951 7.6286 3.3625 2.9766 0.0000 -0.0000 0.0000 2.0159 -58.6080 -45.8999 83.1820 -59.8236 -54.0990 -0.0000 -0.0000 19.1144 -9.0273 10.1851 -1.6092 -7.1250 0.0000 -0.0000 -30.3082 38.2897 5.6443 0.0000 -0.0000 0.0000 169.8459 80.9055 133.7287 -88.9981 59.9962 -59.1323 0.0000 0.0000 10.0870 -16.3869 -23.0556 6.5695 7.1250 -0.0000 -0.0000 13.2291 -53.4180 -2.7770
0.00 0.00 0.00 -175.4270 8.2493 -232.0130 0.0000 0.0000 0.0000 16.7632 53.2548 -98.9932 38.0782 8.7012 155.1348 174.2656 38.3007 -21.8938 0.1984 -2.8683 -7.9122 0.0000 0.0000 0.0000 18.1643 3.5978 -67.6766 -27.0154 -18.7766 110.9223 0.1535 -7.2897 -5.0845 -0.0906 -1.9414 5.3438 -7.2983 -6.6742 43.4003 1.3752 -5.6809 14.2787 7.1205 -0.6170 -3.4571 -30.7137 5.6553 2.8142 9.2538 8.1769 15.0799 7.8035 3.4806 2.7457 0.0000 -0.0000 0.0000 -0.5708 -60.0080 -46.3052 87.9832 -59.9846 -58.2535 -0.0000 -0.0000 20.7382 -11.2632 9.6667 -1.9153 -7.1250 0.0000 -0.0000 -31.8006 37.6331 6.6004 0.0000 -0.0000 0.0000 160.0858 80.3787 124.0040 -95.5329 59.8840 -64.7897 0.0000 0.0000 9.9660 -18.9397 -21.3692 7.1270 7.1250 -0.0000 -0.0000 10.0025 -52.1801 -1.7827
0.00 0.00 0.00 -175.2420 8.5659 -231.5680 0.0000 0.0000 0.0000 16.1546 48.2182 -100.8105 37.8327 9.2062 153.5574 172.3354 44.7593 -3.8852 0.0022 0.3006 0.8259 0.0000 0.0000 0.0000 18.9845 3.7781 -65.4778 -26.0030 -19.1131 107.8045 0.1532 -6.9552 -3.2635 -0.3655 -3.8834 10.7489 -6.5611 -6.8733 43.2197 1.4139 -5.7244 14.0554 6.8084 -0.6413 -3.7356 -31.3011 5.8281 3.0709 9.3311 8.3312 14.9177 7.8869 3.5544 2.6159 0.0000 -0.0000 0.0000 -1.0188 -60.0672 -46.6238 89.7506 -59.9998 -59.7840 -0.0000 -0.0000 21.1119 -11.7607 9.6111 -1.9908 -7.1250 0.0000 -0.0000 -32.1497 37.5387 6.7826 0.0000 -0.0000 0.0000 159.2738 80.2612 123.3132 -97.4861 59.7872 -66.4785 0.0000 0.0000 10.0440 -19.5866 -20.7705 7.1917 7.1250 -0.0000 -0.0000 9.1470 -51.6813 -1.5156
